<?xml version="1.0" encoding="UTF-8" standalone="no"?>
<!DOCTYPE svg PUBLIC "-//W3C//DTD SVG 1.1//EN" "http://www.w3.org/Graphics/SVG/1.1/DTD/svg11.dtd">
<svg width="100%" height="100%" viewBox="0 0 1080 1080" version="1.1" xmlns="http://www.w3.org/2000/svg" xmlns:xlink="http://www.w3.org/1999/xlink" xml:space="preserve" xmlns:serif="http://www.serif.com/" style="fill-rule:evenodd;clip-rule:evenodd;stroke-linecap:round;stroke-linejoin:round;stroke-miterlimit:1.5;">
    <g id="Logic-Designer-Logo-Light" serif:id="Logic Designer Logo Light" transform="matrix(1.31715,0,0,1.31715,-171.26,-120.692)">
        <g transform="matrix(0.894336,0,0,0.894336,152.353,64.0166)">
            <circle cx="433.447" cy="197.32" r="89.452" style="fill:rgb(168,255,206);"/>
        </g>
        <g transform="matrix(0.894336,0,0,0.894336,152.353,586.258)">
            <circle cx="433.447" cy="197.32" r="89.452" style="fill:rgb(168,255,206);"/>
        </g>
        <g transform="matrix(0.894336,0,0,0.894336,-152.325,586.258)">
            <circle cx="433.447" cy="197.32" r="89.452" style="fill:rgb(168,255,206);"/>
        </g>
        <g transform="matrix(0.894336,0,0,0.894336,457.031,586.258)">
            <circle cx="433.447" cy="197.32" r="89.452" style="fill:rgb(168,255,206);"/>
        </g>
        <path d="M235.322,762.728L235.322,538.844C235.322,517.924 252.246,500.948 273.165,500.883C354.774,500.631 540,500.06 540,500.06C540,500.06 724.849,499.417 806.586,499.132C816.676,499.097 826.366,503.081 833.513,510.204C840.661,517.327 844.678,527.002 844.678,537.093L844.678,762.728" style="fill:none;stroke:rgb(168,255,206);stroke-width:54.66px;"/>
        <path d="M540,762.728L540,240.487" style="fill:none;stroke:rgb(168,255,206);stroke-width:54.66px;"/>
    </g>
</svg>
